<svg id="e6S7m3idRGD1" xmlns="http://www.w3.org/2000/svg" xmlns:xlink="http://www.w3.org/1999/xlink" viewBox="0 0 300 300" shape-rendering="geometricPrecision" text-rendering="geometricPrecision"><path d="M47.613616,116.336199q.526409-.526408,41.849447-41.849447h60.536936v75.513247h-102.386386q-.526409-33.137394.000003-33.6638Z" transform="matrix(1.271979 0 0 1.614151-47.118635-98.930849)" fill="none" stroke="#3f5787" stroke-width="0.6"/><path d="M47.613616,116.336199q.526409-.526408,41.849447-41.849447h60.536936v75.513247h-102.386386q-.526409-33.137394.000003-33.6638Z" transform="matrix(0 1.187936-1.728347 0 415.573855-34.998619)" fill="none" stroke="#3f5787" stroke-width="0.6"/><path d="M47.613616,116.336199q.526409-.526408,41.849447-41.849447h60.536936v75.513247h-102.386386q-.526409-33.137394.000003-33.6638Z" transform="matrix(1.271979 0 0 1.614151-47.118635-98.930849)" fill="none" stroke="#3f5787" stroke-width="0.6"/><path d="M47.613616,116.336199q.526409-.526408,41.849447-41.849447h60.536936v75.513247h-102.386386q-.526409-33.137394.000003-33.6638Z" transform="matrix(0 1.187936-1.728347 0 415.573855-34.998619)" fill="none" stroke="#3f5787" stroke-width="0.6"/><path d="M47.613616,116.336199q.526409-.526408,41.849447-41.849447h60.536936v75.513247h-102.386386q-.526409-33.137394.000003-33.6638Z" transform="matrix(1.271979 0 0 1.614151-47.118635-98.930849)" fill="#009600" stroke-width="0.6"/><path d="M47.613616,116.336199q.526409-.526408,41.849447-41.849447h60.536936v75.513247h-102.386386q-.526409-33.137394.000003-33.6638Z" transform="matrix(0 1.187936-1.728347 0 415.573855-34.998619)" fill="#940000" stroke-width="0.6"/><path d="M47.613616,116.336199q.526409-.526408,41.849447-41.849447h60.536936v75.513247h-102.386386q-.526409-33.137394.000003-33.6638Z" transform="matrix(0-1.187936 1.728347 0-115.573858 334.998634)" fill="#949400" stroke-width="0.6"/><path d="M47.613616,116.336199q.526409-.526408,41.849447-41.849447h60.536936v75.513247h-102.386386q-.526409-33.137394.000003-33.6638Z" transform="matrix(-1.271979 0 0-1.61415 347.118667 398.930772)" fill="#005296" stroke-width="0.6"/></svg>
